# xmcd
#
# Track frame offsets:
#	150
#	12860
#	31668
#	52283
#	70098
#	87140
#	101328
#	114440
#	133380
#	146860
#	167565
#	181900
#	191218
#	204535
#	220205
#	233573
#	250155
#	269268
#	282468
#	303765
#
# Disc length: 4281 seconds
# Revision: 0
# Processed by: cddbd v1.5.2PL0 Copyright (c) Steve Scherf et al.
# Submitted via: dBpowerAMP V12.0
#
DISCID=2110b714
DTITLE=Various Artist - TM Century GoldDisc CX7
DYEAR=1993
DGENRE=Country Christmas
TTITLE0=Alan Jackson - If We Make It Through December
TTITLE1=Kathy Mattea - There's A New Kid In Town
TTITLE2=Vince Gill W/ Jenny Gill - Let There Be Peace On Earth
TTITLE3=Lorrie Morgan W/ Andy Williams - Little Snow Girl
TTITLE4=Wynonna - Blue Christmas
TTITLE5=Travis Tritt - All I Want For Christmas Dear Is You
TTITLE6=Suzy Bogguss W/ Chet Atkins - I Heard The Bells On Christmas Day
TTITLE7=Alan Jackson W/ The Chipmunks - Santa's Gonna Come In A Pickup Truck
TTITLE8=Holly Dunn - Feliz Navidad
TTITLE9=Vince Gill - I'll Be Home For Christmas
TTITLE10=Lorrie Morgan - Sleigh Ride
TTITLE11=Dale Daniel - O Come Emmanuel
TTITLE12=The Remingtons - Blue Christmas
TTITLE13=Lisa Stewart - The Christmas Song (Chestnuts)
TTITLE14=Doug Supernaw - Christmas Will Never Be The Same
TTITLE15=John Anderson - What Child Is This
TTITLE16=Lorrie Morgan - Up On Santa Claus Mountain
TTITLE17=Alan Jackson W/ Alison Krauss - The Angels Cried
TTITLE18=Vince Gill - White Christmas
TTITLE19=Kathy Mattea - The Star
EXTD=
EXTT0=
EXTT1=
EXTT2=
EXTT3=
EXTT4=
EXTT5=
EXTT6=
EXTT7=
EXTT8=
EXTT9=
EXTT10=
EXTT11=
EXTT12=
EXTT13=
EXTT14=
EXTT15=
EXTT16=
EXTT17=
EXTT18=
EXTT19=
PLAYORDER=
